<svg width="77" height="21" viewBox="0 0 77 21" fill="none" xmlns="http://www.w3.org/2000/svg">
<path d="M5.48261 13.0327V19.5615C5.26597 19.6206 4.92131 19.6797 4.44864 19.7388C3.97597 19.7978 3.51314 19.8274 3.06016 19.8274C2.60718 19.8274 2.20344 19.788 1.84893 19.7092C1.51412 19.6501 1.22855 19.532 0.992213 19.3547C0.755877 19.1775 0.578624 18.9313 0.460456 18.6162C0.342287 18.301 0.283203 17.8875 0.283203 17.3754V1.77716C0.499845 1.73777 0.844503 1.68853 1.31718 1.62945C1.78985 1.55067 2.24283 1.51128 2.67611 1.51128C3.12909 1.51128 3.52299 1.55067 3.8578 1.62945C4.2123 1.68853 4.50772 1.8067 4.74406 1.98395C4.9804 2.16121 5.15765 2.40739 5.27582 2.72251C5.39399 3.03762 5.45307 3.45121 5.45307 3.96327V8.66047L11.5978 1.59991C12.9371 1.59991 13.8923 1.85594 14.4634 2.368C15.0543 2.86037 15.3497 3.45121 15.3497 4.14053C15.3497 4.65259 15.2217 5.13511 14.9656 5.58809C14.7096 6.04107 14.296 6.55313 13.7249 7.12428L10.0321 10.817C10.5245 11.3685 11.0365 11.9396 11.5683 12.5305C12.1197 13.1213 12.6515 13.7023 13.1636 14.2735C13.6953 14.8249 14.1975 15.3567 14.6702 15.8687C15.1626 16.3808 15.586 16.8239 15.9405 17.1981C15.9405 17.6314 15.8617 18.0155 15.7042 18.3503C15.5466 18.6851 15.33 18.9707 15.0543 19.207C14.7982 19.4433 14.5028 19.6206 14.168 19.7388C13.8332 19.8569 13.4787 19.916 13.1045 19.916C12.297 19.916 11.6372 19.7191 11.1252 19.3252C10.6131 18.9116 10.1207 18.4291 9.64805 17.8776L5.48261 13.0327Z" fill="white"/>
<path d="M17.1089 5.529C17.3058 5.46992 17.6111 5.41084 18.0247 5.35175C18.458 5.29267 18.9011 5.26313 19.3541 5.26313C19.7874 5.26313 20.1714 5.29267 20.5062 5.35175C20.8607 5.41084 21.1562 5.52901 21.3925 5.70626C21.6288 5.88351 21.8061 6.1297 21.9243 6.44481C22.0621 6.74023 22.1311 7.13413 22.1311 7.6265V13.978C22.1311 14.7855 22.328 15.3665 22.7219 15.721C23.1158 16.0558 23.6869 16.2232 24.4353 16.2232C24.8883 16.2232 25.2527 16.1839 25.5284 16.1051C25.8238 16.0263 26.0503 15.9475 26.2079 15.8687V5.529C26.4048 5.46992 26.7101 5.41084 27.1237 5.35175C27.557 5.29267 28.0001 5.26313 28.4531 5.26313C28.8863 5.26313 29.2704 5.29267 29.6052 5.35175C29.9597 5.41084 30.2551 5.52901 30.4915 5.70626C30.7278 5.88351 30.9051 6.1297 31.0232 6.44481C31.1611 6.74023 31.23 7.13413 31.23 7.6265V16.6073C31.23 17.592 30.8164 18.3306 29.9893 18.823C29.2999 19.2562 28.4728 19.5812 27.5077 19.7978C26.5624 20.0342 25.5284 20.1523 24.4058 20.1523C23.3423 20.1523 22.3575 20.0342 21.4516 19.7978C20.5653 19.5615 19.7972 19.1972 19.1473 18.7048C18.4974 18.2124 17.9952 17.5822 17.6407 16.8141C17.2861 16.0263 17.1089 15.081 17.1089 13.978V5.529Z" fill="white"/>
<path d="M38.3599 14.7461C38.3599 15.2582 38.5175 15.6226 38.8326 15.8392C39.1674 16.0558 39.6302 16.1642 40.2211 16.1642C40.5165 16.1642 40.8217 16.1445 41.1369 16.1051C41.452 16.046 41.7277 15.9771 41.964 15.8983C42.1413 16.1149 42.289 16.3611 42.4072 16.6368C42.545 16.8929 42.614 17.208 42.614 17.5822C42.614 18.3306 42.3284 18.9411 41.7572 19.4138C41.2058 19.8865 40.2211 20.1228 38.803 20.1228C37.0699 20.1228 35.7307 19.7289 34.7853 18.9411C33.8597 18.1533 33.3968 16.8732 33.3968 15.1006V2.45663C33.6135 2.39754 33.9187 2.33846 34.3126 2.27937C34.7262 2.20059 35.1595 2.16121 35.6125 2.16121C36.4791 2.16121 37.1487 2.31876 37.6213 2.63388C38.1137 2.9293 38.3599 3.56938 38.3599 4.55412V6.44481H42.2299C42.3481 6.66145 42.4564 6.93718 42.5549 7.27199C42.673 7.58711 42.7321 7.94161 42.7321 8.3355C42.7321 9.02482 42.5746 9.52704 42.2595 9.84215C41.964 10.1376 41.5603 10.2853 41.0482 10.2853H38.3599V14.7461Z" fill="white"/>
<path d="M49.2227 14.7461C49.2227 15.2582 49.3803 15.6226 49.6954 15.8392C50.0302 16.0558 50.493 16.1642 51.0839 16.1642C51.3793 16.1642 51.6846 16.1445 51.9997 16.1051C52.3148 16.046 52.5905 15.9771 52.8269 15.8983C53.0041 16.1149 53.1518 16.3611 53.27 16.6368C53.4078 16.8929 53.4768 17.208 53.4768 17.5822C53.4768 18.3306 53.1912 18.9411 52.6201 19.4138C52.0686 19.8865 51.0839 20.1228 49.6658 20.1228C47.9327 20.1228 46.5935 19.7289 45.6481 18.9411C44.7225 18.1533 44.2596 16.8732 44.2596 15.1006V2.45663C44.4763 2.39754 44.7815 2.33846 45.1754 2.27937C45.589 2.20059 46.0223 2.16121 46.4753 2.16121C47.3419 2.16121 48.0115 2.31876 48.4842 2.63388C48.9765 2.9293 49.2227 3.56938 49.2227 4.55412V6.44481H53.0927C53.2109 6.66145 53.3192 6.93718 53.4177 7.27199C53.5359 7.58711 53.5949 7.94161 53.5949 8.3355C53.5949 9.02482 53.4374 9.52704 53.1223 9.84215C52.8269 10.1376 52.4231 10.2853 51.911 10.2853H49.2227V14.7461Z" fill="white"/>
<path d="M60.1741 19.6501C59.9575 19.6895 59.6325 19.7388 59.1993 19.7978C58.7857 19.8766 58.3622 19.916 57.9289 19.916C57.4957 19.916 57.1018 19.8865 56.7473 19.8274C56.4124 19.7683 56.1269 19.6501 55.8905 19.4729C55.6542 19.2956 55.4671 19.0593 55.3292 18.7639C55.2111 18.4488 55.152 18.045 55.152 17.5526V0.418223C55.3686 0.378833 55.6837 0.329596 56.0973 0.270513C56.5306 0.191734 56.9639 0.152344 57.3972 0.152344C57.8305 0.152344 58.2145 0.181886 58.5493 0.240969C58.9038 0.300054 59.1993 0.418222 59.4356 0.595475C59.6719 0.772728 59.8492 1.01891 59.9674 1.33403C60.1052 1.62945 60.1741 2.02334 60.1741 2.51571V19.6501Z" fill="white"/>
<path d="M69.97 20.1523C68.808 20.1523 67.7248 19.9948 66.7203 19.6797C65.7356 19.3449 64.869 18.8525 64.1206 18.2026C63.3919 17.5526 62.8109 16.7353 62.3776 15.7506C61.9641 14.7658 61.7573 13.6137 61.7573 12.2941C61.7573 10.9943 61.9641 9.88154 62.3776 8.95589C62.8109 8.01054 63.3722 7.24245 64.0616 6.65161C64.7509 6.04107 65.5387 5.59794 66.4249 5.32221C67.3112 5.02679 68.2171 4.87908 69.1428 4.87908C70.1866 4.87908 71.132 5.03664 71.9788 5.35175C72.8454 5.66687 73.584 6.10015 74.1945 6.65161C74.8247 7.20306 75.3072 7.86283 75.6421 8.63093C75.9966 9.39902 76.1738 10.236 76.1738 11.142C76.1738 11.8116 75.9867 12.3237 75.6125 12.6782C75.2383 13.0327 74.7164 13.2592 74.0468 13.3577L66.7499 14.4507C66.9665 15.1006 67.4097 15.593 68.0793 15.9278C68.7489 16.2429 69.517 16.4005 70.3836 16.4005C71.191 16.4005 71.9493 16.302 72.6583 16.1051C73.387 15.8884 73.9779 15.6423 74.4308 15.3665C74.7459 15.5635 75.0118 15.8392 75.2285 16.1937C75.4451 16.5482 75.5534 16.9224 75.5534 17.3163C75.5534 18.2026 75.1398 18.8623 74.3127 19.2956C73.6824 19.6304 72.9734 19.8569 72.1856 19.9751C71.3978 20.0933 70.6593 20.1523 69.97 20.1523ZM69.1428 8.5423C68.6701 8.5423 68.2565 8.62108 67.902 8.77864C67.5672 8.93619 67.2915 9.14299 67.0748 9.39902C66.8582 9.63536 66.6908 9.91108 66.5726 10.2262C66.4742 10.5216 66.4151 10.8269 66.3954 11.142L71.4471 10.3148C71.388 9.92093 71.1713 9.52704 70.7971 9.13314C70.423 8.73925 69.8715 8.5423 69.1428 8.5423Z" fill="white"/>
</svg>
